<?xml version="1.0" encoding="UTF-8" standalone="no"?>
<!-- Created with Inkscape (http://www.inkscape.org/) -->

<svg
   version="1.1"
   id="svg2"
   xml:space="preserve"
   width="610"
   height="610"
   viewBox="0 0 609.99999 610"
   sodipodi:docname="SHUF CO.svg"
   inkscape:version="1.1.2 (0a00cf5339, 2022-02-04)"
   xmlns:inkscape="http://www.inkscape.org/namespaces/inkscape"
   xmlns:sodipodi="http://sodipodi.sourceforge.net/DTD/sodipodi-0.dtd"
   xmlns="http://www.w3.org/2000/svg"
   xmlns:svg="http://www.w3.org/2000/svg"><defs
     id="defs6"><clipPath
       clipPathUnits="userSpaceOnUse"
       id="clipPath16"><path
         d="M 0,460 H 1520 V 0 H 0 Z"
         id="path14" /></clipPath></defs><sodipodi:namedview
     id="namedview4"
     pagecolor="#505050"
     bordercolor="#eeeeee"
     borderopacity="1"
     inkscape:pageshadow="0"
     inkscape:pageopacity="0"
     inkscape:pagecheckerboard="0"
     showgrid="false"
     inkscape:zoom="0.73302185"
     inkscape:cx="315.13385"
     inkscape:cy="263.29365"
     inkscape:window-width="1332"
     inkscape:window-height="732"
     inkscape:window-x="0"
     inkscape:window-y="0"
     inkscape:window-maximized="1"
     inkscape:current-layer="g8" /><g
     id="g8"
     inkscape:groupmode="layer"
     inkscape:label="IT logo"
     transform="matrix(1.3333333,0,0,-1.3333333,0,613.33333)"><path
       id="path20"
       style="fill:#000002;fill-opacity:1;fill-rule:nonzero;stroke:#000000;stroke-width:6.00000015;stroke-miterlimit:4;stroke-dasharray:none;stroke-opacity:1;stroke-linecap:round;stroke-linejoin:bevel;stroke-dashoffset:0;paint-order:stroke fill markers"
       d="m 226.7917,449.01207 c -7.43289,0.0703 -14.38641,-3.99307 -17.77441,-10.66407 -4.25,-8.368 -2.64504,-17.40589 4.20996,-23.71289 6.842,-6.294 16.45889,-7.19208 24.9419,-2.55908 1.965,1.073 4.56452,2.47351 6.43652,1.99951 18.829,-4.766 24.71161,-18.30809 15.20361,-34.91309 -15.065,-26.307 -30.31175,-52.51065 -45.46875,-78.76464 -10.942,-18.952 -21.86243,-37.91597 -33.19044,-57.56398 -4.48399,2.55501 -8.09773,4.61385 -12.26073,6.98585 1.787,3.42199 3.11135,6.13376 4.58935,8.75977 16.077,28.57499 32.37664,57.02749 48.18165,85.75048 7.22799,13.13601 4.49418,23.3416 -7.59083,32.3086 -3.468,2.57399 -7.68825,4.25773 -10.78125,7.17773 -2.595,2.449 -5.15125,5.89068 -5.80224,9.26368 -1.895,9.827 -7.72348,16.7261 -17.02149,18.4541 -8.553,1.591 -17.05076,-2.41989 -21.19775,-10.00489 -4.36101,-7.976 -3.25839,-16.67688 2.93262,-23.12988 6.78,-7.068 16.34775,-8.43848 25.53076,-3.68848 1.863,0.965 3.81848,2.68017 5.66748,2.59717 15.141,-0.676 25.49793,-18.36686 18.27393,-31.71386 -8.38901,-15.501 -17.442,-30.643 -26.25001,-45.917 -8.476,-14.7 -17.00557,-29.36961 -25.68457,-44.34961 -8.485,4.485 -17.11266,8.61065 -14.95166,19.24365 1.366,6.724 5.17625,13.25805 9.17724,18.97706 1.395,1.993 6.65212,1.27233 10.14112,1.81933 11.451,1.797 19.56683,13.39821 17.17383,24.5332 -2.305,10.724 -13.28486,17.63534 -24.00586,15.11133 -11.374,-2.679 -19.67397,-15.37037 -14.75097,-25.63037 3.68799,-7.685 1.50947,-12.75052 -2.04054,-18.70752 -1.57599,-2.645 -2.89485,-5.47821 -4.02685,-8.34522 -5.108,-12.92599 -1.9909,-22.72081 9.8291,-30.25781 8.085,-5.156 16.33733,-10.05448 24.59033,-14.93848 19.126,-11.31799 38.29759,-22.5576 57.76759,-34.0166 -2.25201,-3.807 -4.09963,-6.92888 -6.14063,-10.37988 -3.526,1.947 -6.50106,3.54777 -9.43506,5.21777 -42.211,24.033 -84.32525,48.23181 -126.656251,72.04981 -23.637,13.301 -32.592177,10.60335 -46.680177,-12.76465 -0.479,-0.794 -0.718785,-1.89351 -1.404785,-2.37451 -2.563,-1.799 -5.093778,-4.41005 -7.946778,-4.89404 -11.061,-1.878 -18.174594,-7.81037 -19.558594,-17.92236 -1.2249996,-8.94801 2.643035,-15.70643 10.311035,-20.12842 7.974001,-4.59701 16.500458,-3.33287 23.043458,2.99413 7.317,7.077 8.313699,15.98286 3.241699,26.31885 -0.983,2.002 -1.952023,4.73451 -1.374023,6.66651 5.681999,19.004 18.162048,23.90627 35.373045,14.03027 42.133001,-24.178 84.235061,-48.41179 126.331061,-72.65478 3.082,-1.776 6.01265,-3.8127 9.49365,-6.0337 -2.76,-4.518 -4.92518,-8.06352 -7.13819,-11.68652 -30.87499,17.311 -60.7555,34.19734 -90.7705,50.84033 -17.65,9.787 -28.174736,6.98876 -39.052736,-9.82324 -1.344,-2.078 -2.16408,-4.71144 -3.95508,-6.23145 -2.99,-2.53899 -6.329289,-5.55829 -9.946289,-6.30029 -9.531,-1.951 -16.553008,-7.99306 -18.208008,-17.31006 -1.509,-8.485 2.724926,-17.01931 10.398926,-20.9663 8.188,-4.212 16.930289,-2.98145 23.071289,3.24755 6.756,6.852 8.200822,16.35497 3.840817,24.77197 -1.100992,2.125 -2.988892,4.44027 -2.816887,6.53028 1.329,16.163 18.650918,25.49191 32.794918,17.48291 28.537,-16.158 56.88206,-32.6559 85.28907,-49.0459 1.299,-0.749 2.41989,-1.80334 3.56689,-2.67334 -5.89,-12.032 -11.30512,-16.79252 -18.97412,-14.58252 -6.702,1.931 -13.24973,5.26767 -18.96973,9.26367 -1.994,1.394 -1.31003,6.61199 -1.85303,10.08399 -1.791,11.457 -13.34836,19.4549 -24.56836,17.0039 -11.02,-2.407 -17.96343,-14.00918 -14.91943,-24.93017 2.963,-10.632 15.78555,-18.42208 25.53955,-13.70508 7.587,3.669 12.76006,1.59223 18.70606,-2.11377 2.607,-1.625 5.47621,-2.89839 8.34521,-4.02539 12.932,-5.079 22.79883,-1.97161 30.29883,9.7544 5.331,8.33499 10.4021,16.83865 15.4541,25.34765 11.185,18.837 22.28517,37.72408 33.72217,57.10108 3.703,-2.252 6.7636,-4.11382 10.28759,-6.25781 -1.833,-3.32001 -3.27271,-6.00684 -4.78271,-8.65284 -23.764,-41.634 -47.73528,-83.15213 -71.23828,-124.932135 -15.088,-26.819994 -12.98563,-33.390121 13.15137,-50.099117 2.622,-1.675005 5.02073,-5.268712 5.57373,-8.324707 1.937,-10.689001 7.59609,-17.511638 17.2251,-19.202641 8.67999,-1.524 16.9589,2.508188 21.0249,10.242188 4.315,8.208 3.15223,16.76136 -3.13476,23.068358 -7.19301,7.214003 -16.27886,7.98996 -26.42286,3.084968 -2.47,-1.194 -6.51555,-1.291965 -8.93555,-0.08497 -19.627,9.774 -21.66493,16.722061 -10.81494,35.581059 24.216,42.087007 48.49623,84.139037 72.78223,126.186047 1.479,2.56099 3.23878,4.95681 5.15479,7.86181 4.275,-2.549 7.85149,-4.6839 11.8125,-7.0459 -2.115,-3.842 -3.70554,-6.79338 -5.35254,-9.71337 -15.954,-28.28301 -32.05044,-56.48605 -47.81544,-84.87306 -6.64299,-11.96299 -4.13808,-22.87048 6.60792,-31.167482 3.90399,-3.015001 8.63076,-5.042963 12.23877,-8.334961 2.60499,-2.376997 5.0617,-5.896207 5.6997,-9.262207 1.833,-9.669998 7.8447,-16.676198 17.1167,-18.325193 8.66801,-1.541003 17.05583,2.49165 21.09083,10.139647 4.29,8.129003 3.13454,16.843726 -3.06446,23.094729 -6.902,6.963 -16.86224,8.335755 -25.57325,3.572752 -1.82799,-0.999997 -3.79242,-2.728537 -5.60742,-2.623537 -15.714,0.914002 -25.70289,18.927352 -17.92089,32.673352 14.32299,25.30099 29.00459,50.39789 43.5586,75.56689 2.607,4.508 5.31882,8.95788 8.17382,13.75488 8.4,-4.304 17.00614,-8.38116 14.89014,-18.99316 -1.34,-6.718 -5.20701,-13.23648 -9.20801,-18.95948 -1.402,-2.007 -6.57597,-1.43305 -10.04297,-1.93505 -11.406,-1.653 -19.77093,-13.37486 -17.35694,-24.38087 2.53701,-11.56099 14.35389,-18.46288 25.65088,-14.98388 10.929,3.367 17.74569,16.50296 12.84669,26.81396 -2.653,5.584 -2.43656,9.62916 0.87744,14.45215 2.253,3.278 3.89163,7.04574 5.39062,10.76075 5.34701,13.257 2.15907,23.3171 -10.12792,30.9331 -13.41101,8.313 -27.01683,16.31482 -40.59083,24.36182 -13.528,8.02 -27.1209,15.92752 -41.2749,24.22852 2.165,3.75199 3.95852,6.86039 6.06152,10.50439 5.564,-3.139 10.62676,-5.98173 15.67676,-8.84473 42.795,-24.261 85.51579,-48.65445 128.42579,-72.71045 12.61599,-7.073 22.96495,-4.53986 31.85595,6.74414 2.29,2.90601 4.38877,6.02232 6.13477,9.27832 2.753,5.13 5.73357,8.27978 12.55957,8.80079 11.622,0.88599 19.30775,13.30074 16.69775,24.53173 -2.564,11.027 -14.48713,18.08179 -25.01513,14.80079 -11.06801,-3.44901 -17.26743,-15.9375 -13.31543,-26.8125 1.66299,-4.579 6.77042,-8.51999 1.96142,-14.20899 -3.568,-4.219 -5.86473,-9.83491 -10.07373,-13.08691 -3.134,-2.421 -8.58198,-3.19608 -12.70898,-2.62208 -4.36701,0.608 -8.54,3.41889 -12.542,5.7129 -41.87699,24.002 -83.70725,48.08325 -125.53125,72.17724 -2.828,1.629 -5.49834,3.52844 -8.77734,5.64844 2.69799,4.433 4.86213,7.99171 7.18212,11.80371 3.525,-1.963 6.21214,-3.45064 8.89014,-4.95263 28.606,-16.041 57.12496,-32.23967 85.85596,-48.05567 12.148,-6.688 22.64375,-4.19643 31.11474,6.66357 2.84301,3.64401 4.67081,8.16001 7.82081,11.45802 2.65,2.775 6.30704,5.48588 9.93604,6.25488 9.52699,2.01999 16.62182,8.18037 18.19482,17.38037 1.466,8.568 -2.71332,16.87621 -10.50732,20.88721 -8.25401,4.24999 -16.65774,3.02032 -23.03174,-3.36768 -6.706,-6.721 -8.05909,-16.07793 -3.68409,-24.75293 1.073,-2.129 2.83689,-4.51412 2.60889,-6.59912 -1.771,-16.21 -18.79994,-25.0576 -32.93994,-17.0376 -27.993,15.875 -55.84468,31.99724 -83.72168,48.07325 -1.74201,1.005 -3.20364,2.49432 -5.05665,3.96533 1.78101,2.83699 3.12131,5.2642 4.73731,7.49121 4.511,6.21799 10.83265,9.32729 17.74365,5.65429 7.041,-3.741 18.32526,-3.27471 17.46827,-16.51171 -0.576,-8.89401 6.5503,-16.33517 15.34131,-18.61817 8.68,-2.255 17.03887,0.86871 21.69286,8.53271 4.62201,7.61101 4.50755,15.31834 -0.91845,22.54834 -5.747,7.65701 -14.99865,9.70338 -24.11865,7.08838 -4.119,-1.18199 -9.10427,-0.40152 -13.44727,0.58448 -3.503,0.795 -6.54789,3.42615 -9.9419,4.91016 -14.136,6.18 -24.39103,3.16664 -32.54004,-9.83936 -7.06099,-11.27 -13.8216,-22.72963 -20.6206,-34.16162 -9.306,-15.65001 -18.52284,-31.3537 -27.98584,-47.3877 -3.714,2.286 -6.79643,4.18263 -10.31543,6.34863 2.308,4.127 4.23101,7.62526 6.20801,11.09326 24.973,43.80101 50.07577,87.52858 74.86377,131.43458 7.89199,13.979 5.28631,24.33347 -7.53369,33.85547 -2.972,2.207 -6.71498,3.55741 -9.22998,6.14941 -2.882,2.97 -6.03752,6.61141 -6.87452,10.44141 -2.05599,9.4 -8.13645,16.36303 -17.58545,17.97803 -1.07237,0.18325 -2.1447,0.27706 -3.20654,0.28711 z m -0.5669,-8.74512 c 5.97101,0 10.81202,-4.84101 10.81202,-10.81201 0,-5.971 -4.84101,-10.81202 -10.81202,-10.81202 -5.97099,0 -10.812,4.84102 -10.812,10.81202 0,5.971 4.84101,10.81201 10.812,10.81201 z m -50.14453,-37.65381 c 5.97201,0 10.81201,-4.84101 10.81202,-10.81201 0,-5.971 -4.84001,-10.81201 -10.81202,-10.81201 -5.97099,0 -10.81201,4.84101 -10.81201,10.81201 0,5.971 4.84102,10.81201 10.81201,10.81201 z m -14.9121,-74.56348 c 5.97099,0 10.812,-4.84101 10.812,-10.81201 0,-5.971 -4.84101,-10.81201 -10.812,-10.81201 -5.97101,0 -10.81202,4.84101 -10.81202,10.81201 0,5.971 4.84101,10.81201 10.81202,10.81201 z M 313.31856,308.973 c 5.971,0 10.81201,-4.84101 10.81201,-10.81201 0,-5.971 -4.84101,-10.81202 -10.81201,-10.81202 -5.971,0 -10.81201,4.84102 -10.81201,10.81202 0,5.971 4.84101,10.81201 10.81201,10.81201 z m 76.80029,-13.66992 c 5.97201,0 10.81202,-4.84101 10.81202,-10.81202 0,-5.971 -4.84001,-10.81201 -10.81202,-10.81201 -5.971,0 -10.81201,4.84101 -10.81201,10.81201 0,5.97101 4.84101,10.81202 10.81201,10.81202 z M 223.61153,250.66489 c 8.489,-4.917 16.07512,-9.31085 24.43212,-14.15185 -4.83099,-8.377 -9.20854,-15.96849 -14.08154,-24.41748 -8.211,4.73499 -15.78475,9.10237 -24.46875,14.10937 4.809,8.332 9.29117,16.09696 14.11817,24.45996 z m 204.03662,-6.06445 c 5.972,0 10.81201,-4.84101 10.81201,-10.81201 0,-5.97101 -4.84001,-10.81202 -10.81201,-10.81202 -5.971,0 -10.81054,4.84101 -10.81055,10.81202 0,5.971 4.83955,10.81201 10.81055,10.81201 z M 30.474803,239.94077 c 5.971001,0 10.812013,-4.84101 10.812013,-10.81201 0,-5.972 -4.841012,-10.81348 -10.812013,-10.81348 -5.971,0 -10.812011,4.84148 -10.812011,10.81348 0,5.971 4.841011,10.81201 10.812011,10.81201 z m 37.28174,-49.95849 c 5.970999,0 10.812009,-4.84002 10.812009,-10.81202 0,-5.971 -4.84101,-10.81201 -10.812009,-10.81201 -5.971,0 -10.812012,4.84101 -10.812012,10.81201 0,5.972 4.841012,10.812 10.812012,10.81202 z m 76.675777,-15.53321 c 5.972,0 10.81202,-4.84001 10.81202,-10.81201 0,-5.971 -4.84002,-10.81201 -10.81202,-10.81201 -5.971,0 -10.81201,4.84101 -10.81201,10.81201 0,5.972 4.84101,10.81201 10.81201,10.81201 z m 151.98487,-16.83985 c 5.972,0 10.81201,-4.84001 10.81201,-10.812 0,-5.97101 -4.84001,-10.81202 -10.81201,-10.81202 -5.971,0 -10.81054,4.84101 -10.81054,10.81202 0,5.97199 4.83954,10.812 10.81054,10.812 z M 281.13155,81.556004 c 5.971,0 10.81201,-4.841482 10.81201,-10.813477 0,-5.971006 -4.84101,-10.812016 -10.81201,-10.812016 -5.971,0 -10.81202,4.84101 -10.81202,10.812016 0,5.971995 4.84102,10.813477 10.81202,10.813477 z M 230.98848,43.714693 c 5.971,0 10.81201,-4.840012 10.81201,-10.812015 0,-5.970998 -4.84101,-10.812008 -10.81201,-10.812008 -5.971,0 -10.81201,4.84101 -10.81201,10.812008 0,5.972003 4.84101,10.812015 10.81201,10.812015 z" /></g></svg>
